<svg width="26" height="26" viewBox="0 0 26 26" fill="none" xmlns="http://www.w3.org/2000/svg">
<path d="M7.25781 10.0315L12.9995 13.3573L18.6978 10.0532" stroke="#B9B9B9" stroke-width="1.5" stroke-linecap="round" stroke-linejoin="round"/>
<path d="M13 19.2506V13.3464" stroke="#B9B9B9" stroke-width="1.5" stroke-linecap="round" stroke-linejoin="round"/>
<path d="M11.6565 6.81409L8.18977 8.74242C7.40977 9.17576 6.75977 10.2699 6.75977 11.1691V14.8416C6.75977 15.7408 7.39894 16.8349 8.18977 17.2683L11.6565 19.1966C12.3931 19.6083 13.6064 19.6083 14.3539 19.1966L17.8206 17.2683C18.6006 16.8349 19.2506 15.7408 19.2506 14.8416V11.1583C19.2506 10.2591 18.6115 9.16492 17.8206 8.73159L14.3539 6.80326C13.6064 6.39159 12.3931 6.39159 11.6565 6.81409Z" stroke="#B9B9B9" stroke-width="1.5" stroke-linecap="round" stroke-linejoin="round"/>
<path d="M23.8333 16.25C23.8333 20.4425 20.4425 23.8333 16.25 23.8333L17.3875 21.9375" stroke="#B9B9B9" stroke-width="1.5" stroke-linecap="round" stroke-linejoin="round"/>
<path d="M2.16602 9.75008C2.16602 5.55758 5.55685 2.16675 9.74935 2.16675L8.61186 4.06258" stroke="#B9B9B9" stroke-width="1.5" stroke-linecap="round" stroke-linejoin="round"/>
</svg>
